<svg width="320" height="84" viewBox="0 0 320 84" fill="none" xmlns="http://www.w3.org/2000/svg">
<rect width="320" height="56" fill="white"/>
<path d="M299.9 17H277V21H299.9V17Z" fill="#81B3D2"/>
<path d="M299.9 26H277V30H299.9V26Z" fill="#81B3D2"/>
<path d="M299.9 35H277V39H299.9V35Z" fill="#81B3D2"/>
<path d="M109 0L159.6 59.1L210.7 0H109Z" fill="#23A9E1"/>
<path d="M159.9 0H109V22.5L159.6 84L159.9 83.6L210.6 23.2V0H159.9ZM159.9 57.1L159.6 57.5L112.7 1.8H159.9H207.1L159.9 57.1Z" fill="#491213"/>
<path d="M159.6 57.5L159.9 57.1L187.5 24.8C180.6 25.7 175.6 30.9 168.9 29.8C165.5 29.2 165.4 27.3 164.4 25.3C163.7 23.8 162.5 24 160.9 23.4C159.5 22.8 158.6 21.7 155.7 22.3C153.2 22.9 152.9 26.8 149.7 26.6C148 26.5 147.9 24.1 145.5 21.1C139.2 13.5 133.3 14.6 129.3 21.6L159.6 57.5Z" fill="#491213"/>
<path d="M132.3 32.2C132.8 32.8 133.2 33.5 133.1 34.3C133 34.9 132.2 35.8 132.8 36.1C133.5 35.2 134.3 34.2 135 33.3C134.4 33.1 129.6 27.5 129.6 26.8C128.5 27.4 127.5 28 126.4 28.5C126.6 29.2 127.7 28.5 128.3 28.5C129.1 28.6 129.7 29.1 130.3 29.7C128.6 31.1 124.4 34.7 123.9 34.8C123.7 34.8 122.8 34.2 122.8 34.7C122.8 35 123.7 35.7 123.8 35.9C124.5 36.8 125.3 37.7 126 38.6C126.6 38.3 125.9 37.9 126.2 37.4C126.5 37.1 131.1 33.2 132.3 32.2Z" fill="white"/>
<path d="M127 25.3C127.4 25.2 127.6 25.7 128 25.2C127.2 24.2 126.4 23.3 125.6 22.3C125.2 21.9 124.8 21.4 124.9 22.3C125 22.9 118.8 28 118.4 28.1C117.9 28.3 117.6 27.7 117.3 28.2C118 29.1 118.8 29.9 119.5 30.8C119.7 31.1 120 31.4 120.2 31.7C120.5 32 120.4 31 120.4 31.1C120.3 30.6 120.9 30.2 121.3 29.9C122.8 28.5 126.6 25.3 127 25.3Z" fill="white"/>
<path d="M118.2 24.4C116.4 24.9 114.6 24.2 114 22.4C113.5 20.6 114.6 18.6 116.1 17.6C117.5 16.6 119.7 16.6 120.5 18.4C120.8 19.2 120.7 20.1 120.4 20.9C120.2 21.4 119.8 21.9 120.5 22.2C121.4 21.1 122.2 20 123.1 18.9C122 18.3 121.6 17.2 120.8 16.3C119.9 15.2 118.7 14.2 117.3 14C114.4 13.6 111.7 16.6 111.5 19.2C111.4 20.7 111.9 22 112.7 23.2C113.5 24.2 114.6 24.8 115.1 26C115.4 26.1 117.8 25 118.4 24.7C118.3 24.6 118.3 24.4 118.2 24.4C117.5 24.6 118.2 24.4 118.2 24.4Z" fill="white"/>
<path d="M157.5 60.8C156.3 60 153.5 56.1 152.9 55.5C152.8 55.4 152.7 55.2 152.6 55.1C152.6 55.1 152.3 55.3 152.4 55.3C152.2 55.4 152.5 55.9 152.3 56.2C151.5 57.4 146.5 61.2 146.3 61.4C145.7 61.8 145.1 61.2 144.8 61.7C145.5 62.6 147.6 65.2 147.8 65.3C148.3 65.4 147.9 64.5 148 64.3C148.1 63.9 150.6 61.9 151.5 61.1C151.8 60.8 152.2 61.5 152.4 61.8C152.7 62.3 152.9 62.8 152.7 63.4C152.6 63.8 152 64.3 152.4 64.6C153 63.9 154.8 61.8 155 61.6C155.3 61.3 154.4 61.6 154.5 61.5C154.1 61.7 153.8 61.7 153.4 61.5C153.3 61.4 152.3 60.4 152.4 60.3C152.8 59.9 153.4 59.3 153.9 59.2C154.8 59 155.5 60.7 155.6 61.3C155.7 61.9 155.7 62.5 155.5 63.1C155.4 63.5 155 63.8 155.5 64C156.2 63 156.9 62.1 157.6 61.1C157.8 60.9 157.6 60.8 157.5 60.8C157.4 60.7 157.7 60.8 157.5 60.8Z" fill="white"/>
<path d="M147.3 56.6C149.5 54.7 149.8 51.5 148.1 49.3C146.2 46.8 142.7 46.2 140.3 48.2C138.1 50.1 137.8 53.2 139.5 55.5C141.5 58.2 144.7 58.5 147.3 56.6C148.5 55.7 147.2 56.7 147.3 56.6ZM146.8 51.9C146.2 53.4 144.6 55 143.1 55.6C141.3 56.3 140 54.8 140.7 53C141.3 51.5 142.9 49.9 144.4 49.3C146.3 48.6 147.5 50.2 146.8 51.9C146.5 52.8 146.9 51.7 146.8 51.9Z" fill="white"/>
<path d="M140.9 42C141.4 42.1 141.8 42.6 142.2 42C141.5 41.1 140.7 40.2 140 39.4C139.4 39.7 140 39.9 139.8 40.4C139.6 40.8 137.2 41.2 136.6 41.3C136.8 40.7 137.5 38.7 137.8 38.5C138.3 38.1 138.7 38.9 139.1 38.4C138.2 37.3 137.3 36.2 136.4 35.1C136.1 34.7 135.8 34.1 135.4 34.4C135.4 34.4 135.4 35.9 135.3 36.1C135.2 36.3 134.4 39.7 133.4 40.6C132.9 41 131.2 42.5 130.7 42.7C130.2 42.9 129.9 42.1 129.5 42.7C130.3 43.7 131.2 44.7 132 45.7C132.1 45.8 132.6 46.6 132.8 46.6C133.3 46.7 132.9 45.7 132.9 45.5C133.1 45.1 135.4 42.8 136.4 42.6C137.6 42.3 139.4 41.8 140.9 42C141.2 42.1 140.5 42 140.9 42Z" fill="white"/>
<path d="M178.2 52.4C178.4 53 178.5 53.7 178.4 54.4C178.3 55.3 177.4 57.3 176.2 56.7C175 56.1 174 55 173 54.1C173.8 53.2 174.5 52.4 175.9 52.8C176.3 52.9 176.6 52.8 176.2 52.5C175.8 52.3 173.1 50.5 172.9 50.7C172.6 51 173.4 51.6 173.1 52.2C172.9 52.6 172.5 53 172.2 53.4C171.5 52.8 170.3 52.1 171.1 51.1C171.6 50.4 172.4 49.9 173.2 49.8C173.8 49.7 175 50.2 175.2 49.6C174.1 49.1 173 48.6 171.9 48C172.1 48.8 168.6 52.5 167.8 53.5C167.7 53.6 167.1 54.1 167.1 54.3C167.1 54.7 167.7 54.4 167.8 54.4C168.3 54.2 174.6 59.5 174.8 59.9C174.9 60.2 174.6 60.5 174.8 60.6C174.8 60.6 175 60.8 175.1 60.8C175.5 60.3 179.6 54.8 180.5 54.6C179.7 53.4 178.9 52.2 178.1 50.9C177.5 51.3 178.1 52 178.2 52.4Z" fill="white"/>
<path d="M172 59.2C169.9 57.9 166.4 60.5 165.9 60.7C164.9 61.2 164.1 60.2 164.6 59.2C165.1 58.4 166 58 166.9 57.9C167.2 57.9 168.3 58.1 168.4 57.9C168.5 57.7 168.6 57.7 168.4 57.6C167.5 57 166.7 56.4 165.8 55.9C165.6 57 164.4 57.6 163.7 58.3C162.9 59.2 162.2 60.2 162.2 61.5C162.2 62.6 162.9 63.6 163.9 64.2C165 64.8 166.2 64.3 167.2 63.7C167.8 63.3 168.5 62.8 169.1 62.5C170.1 62 171.4 62.4 171.1 63.8C170.8 64.9 169.7 65.9 168.7 66.1C168.1 66.3 167.4 66.2 166.8 66C166.4 65.9 165.8 65.3 165.6 65.9C166.8 66.7 167.9 67.6 169.1 68.4C169.2 67.6 169.6 67.3 170.2 66.8C170.9 66.2 171.6 65.5 172.2 64.7C173.4 63 173.8 60.6 172 59.2Z" fill="white"/>
<path d="M172 59.2C173 59.7 171.4 58.7 172 59.2V59.2Z" fill="white"/>
<path d="M208.7 19.6C208 20.3 200.3 17.3 199.7 16.8C199.4 16.7 199.4 15.5 199 16C198.6 16.5 198.2 17 197.8 17.5C197.4 18 197 18.5 196.5 19C196.2 19.3 196 19.5 196.5 19.7C197.3 19.3 201.9 27 201.5 28.2C200.8 28.6 194.6 23.1 194.4 22.8C194.3 22.7 194.7 21.8 194.2 21.9C194 21.9 193.5 22.8 193.3 23C193 23.4 192.7 23.7 192.4 24.1C192.7 24.6 192.9 24.1 193.4 24.1C193.8 24.2 195.2 25.4 195.6 25.8C194.9 25.8 192.9 25.9 192.7 25.9C191.8 26 192.3 25.2 191.7 25C190.9 25.9 190.2 26.8 189.4 27.8C189 28.3 188.5 28.9 188.1 29.4C188 29.5 188.1 29.4 188.2 29.5C188.5 29.8 188.3 29.7 188.8 29.5C189.3 29.3 195.4 34.4 195.6 34.7C196 35.2 195.4 35.7 196 35.9C196.6 35.2 197.2 34.4 197.8 33.7C197.9 33.6 197.9 33.6 197.8 33.5C197.4 33.1 197.3 33.7 196.8 33.7C196.3 33.6 192.4 30.3 190.9 29.1C192.7 29 198.2 28.8 199.1 28.8C199.4 28.8 200.2 29.7 200.2 30C200.1 30.4 199.7 30.6 200.3 30.8C200.8 30.2 201.3 29.7 201.8 29.1L202 28.8C202.1 28.7 202.1 28.7 202.2 28.5L202.4 28.3C202.8 27.8 204.2 26.3 204 26.1C203.5 25.7 203.3 26.6 202.7 26C202.4 25.8 201.5 24.2 201.3 23.8C201 23.4 201.9 22.9 202.3 22.7C203.1 22.2 205.5 21.5 205.8 23C205.8 23.3 205.5 23.5 205.7 23.7C205.7 23.7 205.9 23.9 206 23.9C206.2 23.7 208.4 21.1 209.3 19.9C208.9 19.8 208.8 19.7 208.7 19.6ZM201.3 21.8C201.4 21.7 201.5 21.7 201.3 21.8C201 22 200.6 22.3 200.3 22.6C199.8 21.7 199.3 20.8 198.7 19.9C199.9 20.4 201.1 20.9 202.2 21.4C202 21.4 201.7 21.6 201.3 21.8Z" fill="white"/>
<path d="M191.6 33C189.2 31 186 31.6 184 33.8C182.1 36.1 182.3 39.5 184.6 41.4C186.9 43.3 190.3 42.8 192.2 40.6C194.1 38.3 194 34.9 191.6 33ZM191.3 39.6C190 40.9 187.9 39.7 186.8 38.9C185.7 38.1 183.7 36.3 184.9 34.8C186 33.5 188 34.6 189.1 35.3C190.3 36.1 192.5 37.9 191.4 39.5C191.5 39.4 191.5 39.4 191.3 39.6Z" fill="white"/>
<path d="M191.6 33C192.8 34 191.3 32.8 191.6 33V33Z" fill="white"/>
<path d="M191.3 39.6C191.4 39.5 191.4 39.5 191.4 39.5C191.3 39.6 191.3 39.6 191.3 39.6Z" fill="white"/>
<path d="M185 42.1C185.1 42.2 185.3 42.3 185 42.1C182.1 39.9 178.7 40.5 176.5 43.2C175.5 44.4 174.5 45.6 173.5 46.8C173.9 47.3 174.3 46.7 174.8 47C175.2 47.3 181 52.1 181.1 52.4C181.3 52.9 180.8 52.9 181.2 53.3C181.4 53.4 185.7 48.1 186.1 47.1C187 45.3 186.4 43.3 185 42.1ZM183.7 48.9C183.5 49.2 183.7 49 183 49.6C182.7 49.9 176.6 44.9 176.8 44.7C177.6 43.8 179.4 43.1 180.4 43.4C182.6 43.8 185.6 46.5 183.7 48.9Z" fill="white"/>
<path d="M159.6 57.5L159.9 57.1L187.5 24.8C180.6 25.7 175.6 30.9 168.9 29.8C165.5 29.2 165.4 27.3 164.4 25.3C163.7 23.8 162.5 24 160.9 23.4C159.5 22.8 158.6 21.7 155.7 22.3C153.2 22.9 152.9 26.8 149.7 26.6C148 26.5 147.9 24.1 145.5 21.1C139.2 13.5 133.3 14.6 129.3 21.6L159.6 57.5Z" fill="#491213"/>
<path d="M155.5 70.9L159.6 64.4L163.6 70.9L159.6 77.4L155.5 70.9Z" fill="#23A9E1"/>
<path d="M132.3 32.3C132.8 32.9 133.2 33.6 133.1 34.4C133 35 132.2 36 132.8 36.2C133.5 35.3 134.3 34.3 135 33.4C134.4 33.2 129.6 27.6 129.6 26.9C128.5 27.5 127.5 28.1 126.4 28.6C126.6 29.3 127.7 28.6 128.3 28.6C129.1 28.7 129.7 29.2 130.3 29.8C128.6 31.2 124.4 34.8 123.9 34.9C123.7 34.9 122.8 34.3 122.8 34.8C122.8 35.1 123.7 35.8 123.8 36C124.5 36.9 125.3 37.8 126 38.7C126.6 38.4 125.9 38 126.2 37.5C126.5 37.1 131.1 33.2 132.3 32.3Z" fill="white"/>
<path d="M127 25.3C127.4 25.2 127.6 25.7 128 25.2C127.2 24.2 126.4 23.3 125.6 22.3C125.2 21.9 124.8 21.4 124.9 22.3C125 22.9 118.8 28 118.4 28.1C117.9 28.3 117.6 27.7 117.3 28.2C118 29.1 118.8 29.9 119.5 30.8C119.7 31.1 120 31.4 120.2 31.7C120.5 32 120.4 31 120.4 31.1C120.3 30.6 120.9 30.2 121.3 29.9C122.8 28.6 126.6 25.3 127 25.3Z" fill="white"/>
<path d="M118.2 24.4C116.4 24.9 114.5 24.2 114 22.4C113.5 20.6 114.6 18.6 116.1 17.6C117.5 16.6 119.7 16.6 120.5 18.4C120.8 19.2 120.7 20.1 120.4 20.9C120.2 21.4 119.8 21.9 120.5 22.2C121.4 21.1 122.2 20 123.1 18.9C122 18.3 121.6 17.2 120.8 16.3C119.9 15.2 118.7 14.2 117.3 14C114.4 13.6 111.7 16.6 111.5 19.2C111.4 20.7 111.9 22 112.7 23.2C113.5 24.2 114.6 24.8 115.1 26C115.4 26.1 117.8 25 118.4 24.7C118.3 24.6 118.3 24.5 118.2 24.4C117.5 24.6 118.2 24.4 118.2 24.4Z" fill="white"/>
<path d="M157.5 60.8C156.3 60 153.5 56.1 152.9 55.5C152.8 55.4 152.7 55.2 152.6 55.1C152.6 55.1 152.3 55.3 152.4 55.3C152.2 55.4 152.5 55.9 152.3 56.2C151.5 57.4 146.5 61.2 146.3 61.4C145.7 61.8 145.1 61.2 144.8 61.7C145.5 62.6 147.6 65.2 147.8 65.3C148.3 65.4 147.9 64.5 148 64.3C148.1 63.9 150.6 61.9 151.5 61.1C151.8 60.8 152.2 61.5 152.4 61.8C152.7 62.3 152.9 62.8 152.7 63.4C152.6 63.8 152 64.3 152.4 64.6C153 63.9 154.8 61.8 155 61.6C155.3 61.3 154.4 61.6 154.5 61.5C154.1 61.7 153.8 61.7 153.4 61.5C153.3 61.4 152.3 60.4 152.4 60.3C152.8 59.9 153.4 59.3 153.9 59.2C154.8 59 155.5 60.7 155.6 61.3C155.7 61.9 155.7 62.5 155.5 63.1C155.4 63.5 155 63.8 155.5 64C156.2 63 156.9 62.1 157.6 61.1C157.8 60.9 157.6 60.8 157.5 60.8C157.4 60.7 157.7 60.8 157.5 60.8Z" fill="white"/>
<path d="M147.3 56.6C149.5 54.7 149.8 51.5 148.1 49.3C146.2 46.8 142.7 46.2 140.3 48.2C138.1 50.1 137.8 53.2 139.5 55.5C141.5 58.2 144.7 58.5 147.3 56.6C148.5 55.7 147.2 56.7 147.3 56.6ZM146.8 51.9C146.2 53.4 144.6 55 143.1 55.6C141.3 56.3 140 54.8 140.7 53C141.4 51.5 142.9 49.9 144.4 49.3C146.3 48.6 147.5 50.2 146.8 51.9C146.4 52.8 146.9 51.7 146.8 51.9Z" fill="white"/>
<path d="M140.9 42C141.4 42.1 141.8 42.5 142.2 42C141.5 41.1 140.7 40.2 140 39.4C139.4 39.7 140 39.9 139.8 40.4C139.6 40.8 137.2 41.2 136.6 41.3C136.8 40.7 137.5 38.7 137.8 38.5C138.3 38.1 138.7 38.9 139.1 38.4C138.2 37.3 137.3 36.2 136.4 35.1C136.1 34.7 135.8 34.1 135.4 34.4C135.4 34.4 135.4 35.9 135.3 36.1C135.2 36.3 134.4 39.7 133.4 40.6C132.9 41 131.2 42.5 130.7 42.7C130.2 42.9 129.9 42.1 129.5 42.7C130.3 43.7 131.2 44.7 132 45.7C132.1 45.8 132.6 46.6 132.8 46.6C133.3 46.7 132.9 45.7 132.9 45.5C133.1 45.1 135.4 42.8 136.4 42.6C137.6 42.4 139.4 41.9 140.9 42C141.2 42.1 140.5 42 140.9 42Z" fill="white"/>
<path d="M134.6 22.9C130.6 22.7 132.2 18.9 135 18.1C137.6 17.3 143.1 19.8 144.8 21.5C142 22.4 138.4 22.2 135.4 22.4C135.2 19.2 134.4 20.3 134.6 22.9Z" fill="#DC6243"/>
<path d="M135.6 27.7C133.6 26.1 134.2 22.4 137.4 23.6C141.4 25.7 136.5 26.8 135.6 27.7Z" fill="#DC6243"/>
<path d="M144.1 35.4C135.5 35.3 141.3 22.1 144.2 22.9C147.6 24 147.2 35.5 144.1 35.4Z" fill="#DC6243"/>
<path d="M150.2 31.1C149.4 33.6 147.8 34.1 148 31C148.2 27.5 150.5 28.3 152.9 27C154.9 25.9 156 21.8 159.5 24.2C161.1 25.3 162.9 24.4 163.4 26C163.4 25.9 158.9 36.3 161.4 36.3C156.4 36.3 158.6 30.4 160.5 26.4C158.7 27.3 155.7 33.1 158.1 34C156.8 35.7 152.9 37.9 150.9 36.3C149.4 35.2 150.2 33.1 150.2 31.1Z" fill="#DC6243"/>
<path d="M154.3 40.7C150.8 41.7 146.2 39.5 151.8 38.4C155.3 37.7 159 39.1 154.3 40.7C154.4 40.7 154.2 40.7 154.3 40.7Z" fill="#DC6243"/>
<path d="M158.7 40.6C158 38.9 159.3 37 161.4 38.4C163.2 39.6 160.5 41.5 158.7 40.6Z" fill="#DC6243"/>
<path d="M155.7 45.2C153.3 44.5 145.2 44.6 150.5 42.4C152.2 41.8 160.7 42.6 155.7 45.2Z" fill="#DC6243"/>
<path d="M158.9 44.9C158.9 43.9 158.4 42.2 160.3 43C162.5 43.8 158.9 45.6 158.9 44.9C158.9 44.9 158.9 44.7 158.9 44.9Z" fill="#DC6243"/>
<path d="M166.2 48.5C164.8 47.3 163.3 47.2 162 48.5C160.2 45.2 153.7 46.3 150.6 45.8C152.2 49.9 165.4 50.7 166.2 48.5Z" fill="#DC6243"/>
<path d="M164.3 51C161.1 50.9 157.6 50.4 154.7 51.1C156.6 51.6 161.1 52.9 156.9 54C158.4 56.2 160.9 56 162.5 54.1C161.8 53.8 161.5 53.4 160.9 53C162.5 52.7 164.1 51.8 164.3 51Z" fill="#DC6243"/>
<path d="M167.9 47.1C162.6 44 163.9 41.7 168.3 39.5C170.6 38.4 175.6 34.3 177.7 35.6C174.4 39.5 171.1 43.3 167.9 47.1Z" fill="#DC6243"/>
<path d="M164.1 39.8C159.6 35.2 170.8 35.6 172.6 34C173.9 34.4 183.4 25.7 185.7 26.3C184 28.2 180.5 34.4 177.9 34.4C175.9 34.4 173.9 34.1 172.4 35.5C170.2 37.6 166.5 38.6 164.1 39.8Z" fill="#F49774"/>
<path d="M165.6 34.2C163.1 35.5 160.8 30.3 165.1 30.8C167.9 31.1 170.8 30.6 173.4 31C171.4 33.3 168.7 34.6 165.6 34.2Z" fill="#F4B1A4"/>
<path d="M178.2 52.5C178.4 53.1 178.5 53.8 178.4 54.5C178.3 55.4 177.4 57.4 176.2 56.8C175 56.2 174 55.1 173 54.2C173.8 53.3 174.5 52.5 175.9 52.9C176.3 53 176.6 52.9 176.2 52.6C175.8 52.4 173.1 50.6 172.9 50.8C172.6 51.1 173.4 51.7 173.1 52.3C172.9 52.7 172.5 53.1 172.2 53.5C171.5 52.9 170.3 52.2 171.1 51.2C171.6 50.5 172.4 50 173.2 49.9C173.8 49.8 175 50.3 175.2 49.7C174.1 49.2 173 48.7 171.9 48.1C172.1 48.9 168.6 52.6 167.8 53.6C167.7 53.7 167.1 54.2 167.1 54.4C167.1 54.8 167.7 54.5 167.8 54.5C168.3 54.3 174.6 59.6 174.8 60C174.9 60.3 174.6 60.6 174.8 60.7C174.8 60.7 175 60.9 175.1 60.9C175.5 60.4 179.6 54.9 180.5 54.7C179.7 53.5 178.9 52.3 178.1 51C177.5 51.3 178.1 52 178.2 52.5Z" fill="white"/>
<path d="M172 59.2C169.9 57.9 166.4 60.5 165.9 60.7C164.9 61.2 164.1 60.2 164.6 59.2C165.1 58.4 166 58 166.9 57.9C167.2 57.9 168.2 58.1 168.4 57.9C168.5 57.7 168.6 57.7 168.4 57.6C167.5 57 166.7 56.4 165.8 55.9C165.6 57 164.4 57.6 163.7 58.3C162.9 59.2 162.2 60.2 162.2 61.5C162.2 62.6 162.9 63.6 163.9 64.2C165 64.8 166.2 64.3 167.2 63.7C167.8 63.3 168.5 62.8 169.1 62.5C170.1 62 171.4 62.4 171.1 63.8C170.8 64.9 169.7 65.9 168.7 66.1C168.1 66.3 167.4 66.2 166.8 66C166.4 65.9 165.8 65.3 165.6 65.9C166.8 66.7 167.9 67.6 169.1 68.4C169.2 67.6 169.6 67.3 170.2 66.8C170.9 66.2 171.6 65.5 172.2 64.7C173.4 63 173.8 60.6 172 59.2Z" fill="white"/>
<path d="M172 59.2C173 59.8 171.4 58.7 172 59.2V59.2Z" fill="white"/>
<path d="M208.7 19.6C208 20.3 200.3 17.3 199.7 16.8C199.4 16.7 199.4 15.5 199 16C198.6 16.5 198.2 17 197.8 17.5C197.4 18 197 18.5 196.5 19C196.2 19.3 196 19.5 196.5 19.7C197.3 19.3 201.9 27 201.5 28.2C200.8 28.6 194.6 23.1 194.4 22.8C194.3 22.7 194.7 21.8 194.2 21.9C194 21.9 193.5 22.8 193.3 23C193 23.4 192.7 23.7 192.4 24.1C192.7 24.6 192.9 24.1 193.4 24.1C193.8 24.2 195.2 25.4 195.6 25.8C194.9 25.8 192.9 25.9 192.7 25.9C191.8 26 192.3 25.2 191.7 25C190.9 25.9 190.2 26.8 189.4 27.8C189 28.3 188.5 28.9 188.1 29.4C188 29.5 188.1 29.4 188.1 29.5C188.4 29.8 188.2 29.7 188.7 29.5C189.2 29.3 195.3 34.4 195.5 34.7C195.9 35.1 195.3 35.7 195.9 35.9C196.5 35.2 197.1 34.4 197.7 33.7C197.8 33.6 197.8 33.6 197.7 33.5C197.3 33.1 197.2 33.7 196.7 33.7C196.2 33.6 192.3 30.3 190.8 29.1C192.6 29 198.1 28.8 199 28.8C199.3 28.8 200.1 29.7 200.1 30C200 30.4 199.6 30.6 200.2 30.8C200.7 30.2 201.2 29.7 201.7 29.1L201.9 28.8C202 28.7 202 28.7 202.1 28.5L202.3 28.3C202.7 27.8 204.1 26.3 203.9 26.2C203.4 25.8 203.2 26.7 202.6 26.1C202.3 25.9 201.4 24.3 201.2 23.9C200.9 23.5 201.8 23 202.2 22.8C203 22.3 205.4 21.6 205.7 23.1C205.7 23.4 205.4 23.6 205.6 23.8C205.6 23.8 205.8 24 205.9 24C206.1 23.8 208.3 21.2 209.2 20C208.9 19.8 208.8 19.7 208.7 19.6ZM201.3 21.8C201.4 21.8 201.5 21.7 201.3 21.8C201 22 200.6 22.3 200.3 22.6C199.8 21.7 199.3 20.8 198.7 19.9C199.9 20.4 201.1 20.9 202.2 21.4C202 21.5 201.7 21.6 201.3 21.8Z" fill="white"/>
<path d="M191.6 33C189.2 31 186 31.6 184 33.8C182.1 36.1 182.3 39.5 184.6 41.4C186.9 43.3 190.3 42.8 192.2 40.6C194.1 38.3 194 34.9 191.6 33ZM191.3 39.6C191.3 39.6 191.3 39.7 191.3 39.6C190 40.9 187.9 39.7 186.8 38.9C185.7 38.1 183.7 36.3 184.9 34.8C186 33.5 188 34.6 189.1 35.3C190.3 36.1 192.5 37.9 191.4 39.5C191.5 39.4 191.5 39.4 191.3 39.6Z" fill="white"/>
<path d="M191.6 33C192.8 34 191.3 32.8 191.6 33V33Z" fill="white"/>
<path d="M191.3 39.7C191.3 39.6 191.3 39.6 191.3 39.7C191.4 39.6 191.4 39.6 191.4 39.6C191.3 39.6 191.3 39.7 191.3 39.7Z" fill="white"/>
<path d="M185 42.1C185.1 42.2 185.3 42.4 185 42.1C182.1 39.9 178.7 40.5 176.5 43.2C175.5 44.4 174.5 45.6 173.5 46.8C173.9 47.3 174.3 46.7 174.8 47C175.2 47.3 181 52.1 181.1 52.4C181.3 52.9 180.8 52.9 181.2 53.3C181.4 53.4 185.7 48.1 186.1 47.1C187 45.3 186.4 43.4 185 42.1ZM183.7 48.9C183.5 49.2 183.7 49 183 49.6C182.7 49.9 176.6 44.9 176.8 44.7C177.6 43.8 179.4 43.1 180.4 43.4C182.6 43.9 185.6 46.6 183.7 48.9Z" fill="white"/>
</svg>
